<?xml version="1.0" encoding="utf-8"?>
<!-- Generator: Adobe Illustrator 26.0.1, SVG Export Plug-In . SVG Version: 6.00 Build 0)  -->
<svg version="1.1" id="Layer_1" xmlns="http://www.w3.org/2000/svg" xmlns:xlink="http://www.w3.org/1999/xlink" x="0px" y="0px"
	 viewBox="0 0 808.74 73" style="enable-background:new 0 0 808.74 73;" xml:space="preserve">
<style type="text/css">
	.st0{fill:none;stroke:#00A651;stroke-miterlimit:10;}
</style>
<g>
	<path class="st0" d="M0.5,71.73V4.53h15.65v67.2H0.5z"/>
	<path class="st0" d="M29.68,31.8L28.72,4.53H41.4L40.44,31.8H29.68z"/>
	<path class="st0" d="M140.18,42.16v29.57H125.2V44.47c0-4.16-0.85-7.24-2.54-9.22c-1.7-1.98-4.08-2.98-7.16-2.98
		c-2.24,0-4.22,0.5-5.95,1.49c-1.73,0.99-3.05,2.47-3.98,4.42c-0.93,1.95-1.39,4.49-1.39,7.63v25.92H89.2V44.47
		c0-4.16-0.85-7.24-2.54-9.22c-1.7-1.98-4.15-2.98-7.35-2.98c-2.17,0-4.13,0.5-5.85,1.49c-1.73,0.99-3.08,2.47-4.04,4.42
		c-0.96,1.95-1.44,4.49-1.44,7.63v25.92H53.01V20.08h14.3v5.91c1.37-1.59,3-2.9,4.9-3.94c3.33-1.82,7.07-2.74,11.23-2.74
		c4.74,0,8.9,1.2,12.48,3.6c1.89,1.26,3.44,2.88,4.64,4.85c1.48-1.87,3.29-3.49,5.44-4.85c3.78-2.4,8.16-3.6,13.15-3.6
		c4.1,0,7.73,0.82,10.9,2.45c3.17,1.63,5.65,4.13,7.44,7.49C139.28,32.61,140.18,36.92,140.18,42.16z"/>
	<polygon class="st0" points="243.57,4.53 243.57,71.73 230.7,71.73 197.3,30.97 197.3,71.73 181.94,71.73 181.94,4.53 194.8,4.53 
		228.21,45.3 228.21,4.53 	"/>
	<path class="st0" d="M297.61,24.88c-4.35-3.71-10.46-5.57-18.33-5.57c-4.1,0-8.13,0.53-12.1,1.59c-3.97,1.05-7.36,2.61-10.17,4.65
		l5.28,10.47c1.92-1.47,4.2-2.64,6.86-3.51c2.66-0.86,5.36-1.29,8.11-1.29c4.03,0,7.03,0.89,8.98,2.69
		c1.95,1.79,2.93,4.28,2.93,7.48v0.1h-11.81c-5.31,0-9.6,0.64-12.87,1.92c-3.26,1.28-5.64,3.09-7.15,5.42
		c-1.5,2.34-2.25,5.01-2.25,8.02c0,2.94,0.78,5.6,2.35,7.97c1.57,2.37,3.79,4.24,6.67,5.61c2.88,1.38,6.3,2.07,10.27,2.07
		c4.55,0,8.26-0.88,11.14-2.64c1.94-1.19,3.48-2.71,4.61-4.55v6.42h14.01V42.26C304.14,34.39,301.97,28.59,297.61,24.88z
		 M284.9,60.69c-2.02,1.15-4.31,1.73-6.87,1.73s-4.59-0.56-6.09-1.68c-1.51-1.12-2.26-2.64-2.26-4.56c0-1.73,0.65-3.17,1.97-4.32
		c1.31-1.15,3.72-1.73,7.25-1.73h10.27v5.28C288.33,57.78,286.91,59.54,284.9,60.69z"/>
	<path class="st0" d="M342.54,72.5c-5.44,0-10.29-1.15-14.54-3.46c-4.26-2.3-7.6-5.46-10.03-9.46c-2.43-4-3.65-8.56-3.65-13.68
		c0-5.18,1.21-9.78,3.65-13.78c2.43-4,5.77-7.14,10.03-9.41c4.26-2.27,9.1-3.41,14.54-3.41c5.5,0,10.4,1.14,14.69,3.41
		c4.29,2.27,7.65,5.41,10.08,9.41c2.43,4,3.65,8.59,3.65,13.78c0,5.18-1.22,9.76-3.65,13.73c-2.43,3.97-5.79,7.1-10.08,9.41
		C352.94,71.35,348.05,72.5,342.54,72.5z M342.54,60.21c2.56,0,4.82-0.56,6.77-1.68c1.95-1.12,3.52-2.77,4.7-4.94
		c1.18-2.17,1.78-4.74,1.78-7.68c0-3.01-0.59-5.57-1.78-7.68c-1.19-2.11-2.75-3.73-4.7-4.85c-1.95-1.12-4.18-1.68-6.67-1.68
		s-4.74,0.56-6.72,1.68c-1.98,1.12-3.57,2.74-4.75,4.85c-1.18,2.11-1.78,4.67-1.78,7.68c0,2.94,0.59,5.51,1.78,7.68
		c1.18,2.18,2.77,3.83,4.75,4.94C337.9,59.65,340.11,60.21,342.54,60.21z"/>
	<path class="st0" d="M380.94,71.73V0.5h14.98v71.23H380.94z"/>
	<path class="st0" d="M451.98,71.73V17.2h-21.5V4.53h58.56V17.2h-21.5v54.53H451.98z"/>
	<path class="st0" d="M532.91,24.88c-4.35-3.71-10.46-5.57-18.34-5.57c-4.09,0-8.13,0.53-12.09,1.59
		c-3.97,1.05-7.36,2.61-10.18,4.65l5.28,10.47c1.92-1.47,4.21-2.64,6.87-3.51c2.65-0.86,5.35-1.29,8.11-1.29
		c4.03,0,7.02,0.89,8.97,2.69c1.95,1.79,2.93,4.28,2.93,7.48v0.1h-11.81c-5.31,0-9.6,0.64-12.86,1.92
		c-3.26,1.28-5.65,3.09-7.15,5.42c-1.51,2.34-2.26,5.01-2.26,8.02c0,2.94,0.78,5.6,2.35,7.97s3.8,4.24,6.68,5.61
		c2.87,1.38,6.3,2.07,10.27,2.07c4.54,0,8.25-0.88,11.13-2.64c1.94-1.19,3.48-2.71,4.61-4.55v6.42h14.02V42.26
		C539.44,34.39,537.26,28.59,532.91,24.88z M520.19,60.69c-2.02,1.15-4.31,1.73-6.87,1.73s-4.59-0.56-6.09-1.68
		c-1.51-1.12-2.26-2.64-2.26-4.56c0-1.73,0.66-3.17,1.97-4.32c1.31-1.15,3.73-1.73,7.25-1.73h10.27v5.28
		C523.63,57.78,522.2,59.54,520.19,60.69z"/>
	<path class="st0" d="M640.14,42.16v29.57h-14.98V44.47c0-4.16-0.85-7.24-2.54-9.22c-1.7-1.98-4.08-2.98-7.15-2.98
		c-2.24,0-4.23,0.5-5.95,1.49c-1.73,0.99-3.06,2.47-3.99,4.42c-0.93,1.95-1.39,4.49-1.39,7.63v25.92h-14.98V44.47
		c0-4.16-0.85-7.24-2.54-9.22c-1.7-1.98-4.15-2.98-7.34-2.98c-2.18,0-4.13,0.5-5.86,1.49c-1.73,0.99-3.07,2.47-4.03,4.42
		c-0.96,1.95-1.44,4.49-1.44,7.63v25.92h-14.98V20.08h14.31v5.91c1.36-1.59,2.99-2.9,4.89-3.94c3.33-1.82,7.07-2.74,11.23-2.74
		c4.74,0,8.9,1.2,12.48,3.6c1.89,1.26,3.44,2.88,4.65,4.84c1.49-1.87,3.29-3.48,5.43-4.84c3.78-2.4,8.16-3.6,13.15-3.6
		c4.1,0,7.73,0.82,10.9,2.45c3.17,1.63,5.65,4.13,7.44,7.49C639.24,32.61,640.14,36.92,640.14,42.16z"/>
	<path class="st0" d="M685.74,19.31v13.92c-0.58-0.12-1.14-0.22-1.68-0.28c-0.55-0.07-1.07-0.1-1.59-0.1
		c-4.22,0-7.58,1.19-10.08,3.55c-2.49,2.37-3.74,6.02-3.74,10.95v24.38h-14.98V20.08h14.31v6.78c1.41-1.94,3.2-3.51,5.37-4.71
		C676.75,20.26,680.87,19.31,685.74,19.31z"/>
	<path class="st0" d="M730.48,24.88c-4.36-3.71-10.47-5.57-18.34-5.57c-4.1,0-8.13,0.53-12.1,1.59c-3.97,1.05-7.36,2.61-10.17,4.65
		l5.28,10.47c1.92-1.47,4.21-2.64,6.86-3.51c2.66-0.86,5.36-1.29,8.11-1.29c4.04,0,7.03,0.89,8.98,2.69
		c1.95,1.79,2.93,4.28,2.93,7.48v0.1h-11.81c-5.31,0-9.6,0.64-12.86,1.92c-3.27,1.28-5.65,3.09-7.16,5.42
		c-1.5,2.34-2.25,5.01-2.25,8.02c0,2.94,0.78,5.6,2.35,7.97s3.79,4.24,6.67,5.61c2.88,1.38,6.31,2.07,10.27,2.07
		c4.55,0,8.26-0.88,11.14-2.64c1.94-1.19,3.48-2.71,4.61-4.55v6.42H737V42.26C737,34.39,734.83,28.59,730.48,24.88z M717.76,60.69
		c-2.02,1.15-4.31,1.73-6.87,1.73s-4.59-0.56-6.09-1.68c-1.51-1.12-2.26-2.64-2.26-4.56c0-1.73,0.66-3.17,1.97-4.32
		c1.31-1.15,3.73-1.73,7.25-1.73h10.27v5.28C721.2,57.78,719.77,59.54,717.76,60.69z"/>
	<path class="st0" d="M783.76,69.23c-1.48,1.09-3.28,1.91-5.43,2.45c-2.14,0.55-4.37,0.82-6.67,0.82c-6.08,0-10.82-1.55-14.21-4.66
		c-3.39-3.1-5.09-7.73-5.09-13.87V32.75h-7.96V21.23h7.96V8.66h15.08v12.57h12.76v11.52h-12.76v20.93c0,2.18,0.55,3.88,1.68,5.09
		c1.12,1.22,2.64,1.82,4.56,1.82c2.43,0,4.47-0.63,6.14-1.92L783.76,69.23z"/>
	<path class="st0" d="M798.92,72.5c-2.56,0-4.75-0.88-6.58-2.64c-1.82-1.76-2.74-3.98-2.74-6.67c0-2.82,0.91-5.09,2.74-6.82
		s4.02-2.59,6.58-2.59c2.62,0,4.83,0.86,6.62,2.59c1.79,1.73,2.69,4,2.69,6.82c0,2.69-0.9,4.91-2.69,6.67
		C803.76,71.62,801.55,72.5,798.92,72.5z"/>
</g>
</svg>
