<svg id="Layer_1" data-name="Layer 1" xmlns="http://www.w3.org/2000/svg" viewBox="0 0 579.96 580.04"><defs><style>.cls-1{fill:#212121;}.cls-2{fill:#2e7d32;}</style></defs><polygon class="cls-1" points="0.21 580.04 0 0 55.96 0 250 194.04 250 307.13 79.97 137.09 79.97 580.04 0.21 580.04"/><polygon class="cls-2" points="250 308.31 330.04 388.35 330.04 580.04 250 580.04 250 308.31"/><polygon class="cls-2" points="115.45 0 467.79 0 388.55 79.23 331.96 79.23 331.96 272.34 251.13 191.51 251.13 79.32 195.11 79.32 115.45 0"/><polygon class="cls-1" points="444.85 79.77 524.31 0.31 579.96 0.31 579.96 580.04 525.53 580.04 331.94 386.45 331.94 272.34 501.38 441.78 501.38 79.32 444.85 79.77"/></svg>